<svg width="1024" height="1024" viewBox="0 0 1024 1024" fill="none" xmlns="http://www.w3.org/2000/svg">
<g clip-path="url(#clip0_46_77)">
<path d="M637.018 70.0361L672.036 1.75098Z" fill="white"/>
<path d="M735.068 57.78L509.202 52.5273Z" fill="white"/>
<path d="M381.386 99.8012L496.945 85.7939Z" fill="white"/>
<path d="M509.202 108.556L836.621 330.92Z" fill="white"/>
<path d="M204.545 36.7689L239.563 0Z" fill="white"/>
<path d="M155.52 371.192L152.019 316.914Z" fill="white"/>
<path d="M274.581 551.534L423.408 500.758Z" fill="white"/>
<path d="M700.05 404.459L663.281 567.293Z" fill="white"/>
<path d="M524.961 518.267L658.029 355.433Z" fill="white"/>
<path d="M251.819 180.343L437.415 185.595Z" fill="white"/>
<path d="M719.715 41.973C717.947 41.9995 716.325 43.2313 714.622 43.7976C714.232 44.0376 713.842 44.2771 713.452 44.5183C713.455 44.5853 713.462 44.6518 713.462 44.7188C714.658 44.553 716.092 44.3335 717.819 44.0514C718.824 43.8872 721.086 42.0664 720.07 41.9857C719.951 41.9763 719.834 41.9715 719.715 41.973Z" fill="white"/>
<path d="M463.679 77.04L416.404 532.275Z" fill="white"/>
<path d="M285.494 22.7611C-28.0848 308.139 -74.819 1122.92 597.791 1014.64C1179.4 921.01 931.114 -21.6078 734.703 110.991C694.316 138.256 759.4 200.303 781.372 241.392C801.09 278.265 836.829 397.324 809.642 572.652C780.415 761.135 636.523 910.65 599.729 901.347C475.32 852.666 503.703 613.867 502.571 563.216C497.981 357.725 605.093 101.343 575.523 95.5879C527.039 86.1512 314.197 355.067 298.191 73.3788C297.14 54.8845 302.885 6.93411 285.494 22.7611Z" fill="white"/>
</g>
<defs>
<clipPath id="clip0_46_77">
<rect width="1024" height="1024" fill="white"/>
</clipPath>
</defs>
</svg>
