<svg width="1414" height="1414" viewBox="0 0 1414 1414" fill="none" xmlns="http://www.w3.org/2000/svg">
<path d="M761.86 221.248C763.318 221.401 763.318 221.401 764.805 221.557C784.693 223.707 804.713 227.078 823.931 232.696C826.108 233.319 828.293 233.899 830.482 234.479C849.869 239.697 869.027 246.4 887.02 255.353C889.066 256.348 891.133 257.287 893.208 258.221C911.402 266.478 928.493 276.812 944.86 288.248C945.566 288.738 946.272 289.227 946.999 289.731C957.253 296.87 966.839 304.469 976.17 312.769C979.592 315.764 983.144 318.597 986.689 321.444C991.86 325.741 991.86 325.741 991.86 328.248C992.85 328.578 993.84 328.908 994.86 329.248C994.86 329.908 994.86 330.568 994.86 331.248C995.52 331.248 996.18 331.248 996.86 331.248C996.86 331.908 996.86 332.568 996.86 333.248C997.85 333.578 998.84 333.908 999.86 334.248C999.86 334.908 999.86 335.568 999.86 336.248C1000.52 336.248 1001.18 336.248 1001.86 336.248C1003.27 337.647 1003.27 337.647 1004.92 339.623C1007.61 342.793 1010.35 345.882 1013.17 348.936C1016.76 352.915 1020.14 357.018 1023.42 361.248C1023.86 361.813 1024.31 362.377 1024.76 362.958C1027.86 367.004 1027.86 367.004 1027.86 369.248C1028.52 369.248 1029.18 369.248 1029.86 369.248C1031.96 371.502 1033.68 374.069 1035.49 376.561C1036 377.251 1036.52 377.941 1037.05 378.653C1037.54 379.32 1038.02 379.987 1038.52 380.674C1039.2 381.593 1039.2 381.593 1039.88 382.531C1040.86 384.248 1040.86 384.248 1040.86 387.248C1041.52 387.248 1042.18 387.248 1042.86 387.248C1044.49 389.615 1046 391.976 1047.49 394.436C1047.93 395.162 1048.37 395.888 1048.83 396.636C1049.74 398.126 1050.65 399.617 1051.56 401.111C1052.72 403.022 1053.9 404.923 1055.09 406.819C1062.22 418.219 1068.23 429.933 1073.87 442.121C1074.8 444.116 1075.75 446.098 1076.72 448.077C1080.24 455.354 1083.19 462.67 1085.8 470.326C1087.04 473.973 1088.34 477.506 1089.99 480.998C1092.56 486.54 1094.13 492.4 1095.86 498.248C1096.51 500.29 1097.15 502.332 1097.8 504.373C1104.35 525.809 1108.84 547.658 1112.55 569.748C1112.85 571.553 1112.85 571.553 1113.16 573.394C1115.57 588.059 1117.17 602.598 1117.92 617.436C1118.01 619.032 1118.09 620.628 1118.17 622.224C1119.11 640.362 1119.77 658.495 1120.04 676.655C1120.71 721.89 1122.46 767.235 1132.27 811.566C1132.99 814.859 1133.68 818.159 1134.37 821.459C1134.78 823.38 1135.18 825.301 1135.58 827.221C1135.98 829.076 1136.37 830.931 1136.75 832.786C1137 833.926 1137.24 835.066 1137.49 836.241C1137.71 837.255 1137.92 838.269 1138.15 839.314C1138.89 842.364 1139.86 845.273 1140.86 848.248C1141.48 850.61 1142.09 852.969 1142.67 855.342C1142.83 856.011 1143 856.679 1143.17 857.368C1143.86 860.195 1144.56 863.022 1145.25 865.85C1147.03 873.09 1148.84 880.301 1150.93 887.459C1152.84 894.046 1154.41 900.672 1155.86 907.373C1156.12 908.543 1156.37 909.712 1156.64 910.917C1157.38 914.359 1158.12 917.804 1158.86 921.248C1159.06 922.181 1159.26 923.113 1159.47 924.074C1164.57 947.813 1166.92 971.193 1166.99 995.436C1166.99 996.683 1166.99 997.93 1167 999.215C1166.98 1010.8 1166.41 1022.31 1164.55 1033.75C1164.35 1034.95 1164.35 1034.95 1164.16 1036.18C1162.94 1043.4 1161.07 1050.27 1158.86 1057.25C1158.54 1058.35 1158.22 1059.44 1157.89 1060.58C1154.93 1070.65 1137.59 1121.25 1124.86 1121.25C1124.63 1121.91 1124.41 1122.58 1124.18 1123.26C1122.24 1127.65 1119.1 1130.63 1115.8 1134.06C1115.12 1134.77 1114.45 1135.48 1113.76 1136.21C1100.29 1150.25 1100.29 1150.25 1096.86 1150.25C1096.86 1150.91 1096.86 1151.57 1096.86 1152.25C1095.04 1153.84 1093.23 1155.3 1091.3 1156.75C1090.43 1157.4 1090.43 1157.4 1089.55 1158.07C1082.86 1163.09 1075.9 1167.73 1068.86 1172.25C1067.5 1173.13 1067.5 1173.13 1066.11 1174.03C1056.9 1179.01 1063.51 1156.58 1064.86 1150.94C1066.29 1144.67 1068.34 1118.44 1066.43 1121.67C1059.83 1132.68 1052.47 1142.78 1043.71 1152.19C1041.71 1154.31 1041.71 1154.31 1039.86 1157.25C1039.2 1157.25 1038.54 1157.25 1037.86 1157.25C1037.53 1158.24 1037.2 1159.23 1036.86 1160.25C1036.2 1160.25 1035.54 1160.25 1034.86 1160.25C1034.53 1161.24 1034.2 1162.23 1033.86 1163.25C1032.15 1164.97 1032.15 1164.97 1030.05 1166.75C1029.02 1167.63 1029.02 1167.63 1027.97 1168.53C1022.19 1173.25 1022.19 1173.25 1019.86 1173.25C1019.86 1173.91 1019.86 1174.57 1019.86 1175.25C1017.6 1176.92 1015.35 1178.48 1012.99 1180C1012.3 1180.45 1011.61 1180.9 1010.9 1181.36C1008.89 1182.67 1006.88 1183.96 1004.86 1185.25C1003.96 1185.82 1003.06 1186.4 1002.13 1186.99C999.737 1188.47 997.317 1189.88 994.86 1191.25C993.876 1191.8 992.891 1192.35 991.876 1192.92C976.816 1200.91 960.414 1205.61 943.739 1208.88C942.109 1209.2 940.484 1209.55 938.86 1209.9C922.645 1213.23 905.554 1212.46 889.087 1212.6C886.626 1212.62 884.165 1212.65 881.704 1212.67C876.582 1212.72 871.461 1212.76 866.339 1212.81C860.42 1212.86 854.5 1212.91 848.581 1212.97C842.861 1213.03 837.14 1213.08 831.419 1213.13C828.993 1213.15 826.566 1213.17 824.14 1213.2C820.767 1213.23 817.395 1213.26 814.023 1213.29C812.515 1213.3 812.515 1213.3 810.976 1213.32C810.062 1213.33 809.149 1213.33 808.207 1213.34C807.411 1213.34 806.615 1213.35 805.795 1213.36C797.39 1212.88 805.128 1203.17 807.485 1199.37C814.126 1188.34 819.28 1177.11 823.798 1165.06C824.258 1163.84 824.258 1163.84 824.728 1162.59C825.008 1161.83 825.287 1161.06 825.575 1160.27C825.824 1159.59 826.073 1158.91 826.329 1158.21C828.355 1150.73 826.045 1153.24 822.548 1157.5C822.144 1157.99 821.74 1158.48 821.323 1158.99C819.545 1161.15 817.812 1163.32 816.192 1165.61C814.86 1167.25 814.86 1167.25 812.86 1167.25C812.86 1167.91 812.86 1168.57 812.86 1169.25C811.462 1170.66 811.462 1170.66 809.485 1172.31C807.15 1174.28 804.852 1176.26 802.63 1178.36C777.872 1201.75 743.816 1214.47 710.048 1214.5C708.938 1214.5 708.938 1214.5 707.806 1214.5C696.59 1214.48 685.769 1214.1 674.86 1211.25C673.673 1210.94 672.486 1210.64 671.263 1210.32C653.602 1205.04 636.656 1196.18 621.86 1185.25C621.024 1184.65 620.187 1184.06 619.325 1183.44C613.465 1179.04 608.31 1173.9 603.11 1168.75C602.389 1168.04 601.667 1167.32 600.923 1166.59C596.454 1162.09 592.513 1157.43 588.86 1152.25C592.34 1172.88 604.005 1192.12 614.886 1209.57C616.585 1212.5 579.78 1212.29 571.655 1212.3C564.812 1212.31 557.969 1212.31 551.125 1212.32C545.154 1212.33 539.182 1212.34 533.211 1212.34C530.055 1212.34 526.899 1212.35 523.744 1212.35C489.979 1212.42 489.979 1212.42 475.423 1209.44C474.538 1209.26 473.654 1209.08 472.742 1208.9C461.117 1206.55 449.756 1204.04 438.86 1199.25C437.263 1198.6 437.263 1198.6 435.634 1197.94C424.328 1193.34 380.86 1173.59 380.86 1160.25C379.87 1159.92 378.88 1159.59 377.86 1159.25C377.86 1158.59 377.86 1157.93 377.86 1157.25C377.2 1157.25 376.54 1157.25 375.86 1157.25C374.462 1155.74 373.142 1154.17 371.86 1152.56C371.467 1152.07 371.074 1151.58 370.67 1151.07C369.393 1149.47 368.126 1147.86 366.86 1146.25C366.436 1145.71 366.012 1145.18 365.574 1144.63C359.856 1137.42 354.674 1130.1 349.86 1122.25C345.514 1115.73 348.534 1135.34 349.048 1139.44C349.174 1140.47 349.3 1141.5 349.429 1142.56C350.539 1151.04 352.302 1159.29 354.498 1167.56C354.718 1168.42 354.938 1169.29 355.165 1170.18C355.371 1170.95 355.577 1171.71 355.79 1172.5C355.998 1177.64 350.606 1174.14 348.482 1172.76C347.643 1172.22 346.804 1171.68 345.941 1171.12C345.068 1170.54 344.196 1169.97 343.298 1169.37C341.568 1168.25 339.837 1167.13 338.107 1166.01C337.34 1165.5 336.574 1165 335.784 1164.48C333.887 1163.22 333.887 1163.22 331.86 1162.25C331.86 1161.59 331.86 1160.93 331.86 1160.25C331.2 1160 330.54 1159.75 329.86 1159.5C326.145 1157.95 318.86 1154.73 318.86 1150.25C318.318 1149.98 317.775 1149.71 317.216 1149.44C314.087 1147.86 311.715 1145.62 309.173 1143.25C308.375 1142.51 308.375 1142.51 307.561 1141.75C280.909 1116.66 261.742 1081.99 254.284 1046.19C253.839 1044.15 253.338 1042.13 252.821 1040.11C249.154 1025.63 248.677 1010.81 248.735 995.936C248.738 994.988 248.738 994.988 248.741 994.021C248.837 966.383 252.7 940.201 258.86 913.248C259.157 911.936 259.157 911.936 259.46 910.597C261.358 902.207 263.472 893.898 265.728 885.596C267.217 879.987 268.524 874.333 269.86 868.686C271.435 862.036 273.031 855.423 274.985 848.873C277.046 841.921 278.479 834.872 279.927 827.772C280.676 824.102 281.494 820.455 282.36 816.811C283.659 811.269 284.807 805.704 285.923 800.123C286.085 799.312 286.248 798.501 286.415 797.665C286.905 795.194 287.385 792.722 287.86 790.248C288.114 788.939 288.114 788.939 288.374 787.603C289.645 780.864 290.578 774.122 291.36 767.311C291.536 765.877 291.536 765.877 291.716 764.414C294.291 742.222 295.117 720.066 295.267 697.753C295.432 673.994 296.023 650.287 297.298 626.561C297.39 624.793 297.39 624.793 297.485 622.989C298.157 610.331 299.022 597.794 300.86 585.248C301.064 583.81 301.266 582.371 301.469 580.932C305.648 551.646 311.79 523.448 320.86 495.248C321.346 493.699 321.832 492.15 322.317 490.6C332.85 457.471 348.55 424.981 367.721 395.995C368.956 394.102 370.157 392.19 371.353 390.272C371.966 389.294 371.966 389.294 372.593 388.296C373.381 387.038 374.165 385.777 374.943 384.513C377.636 380.248 377.636 380.248 379.86 380.248C380.096 379.592 380.332 378.936 380.575 378.26C382.433 373.907 385.394 370.663 388.423 367.061C389.613 365.631 390.802 364.2 391.989 362.768C392.516 362.14 393.043 361.512 393.585 360.865C394.938 359.263 394.938 359.263 395.86 357.248C396.52 357.248 397.18 357.248 397.86 357.248C398.558 355.931 399.22 354.594 399.86 353.248C402.033 350.445 404.473 347.869 406.86 345.248C407.297 344.767 407.734 344.285 408.184 343.788C417.592 333.422 427.171 323.314 437.86 314.248C438.513 313.668 439.165 313.088 439.837 312.491C440.463 311.936 441.09 311.382 441.735 310.811C442.567 310.07 442.567 310.07 443.415 309.315C444.86 308.248 444.86 308.248 446.86 308.248C446.86 307.588 446.86 306.928 446.86 306.248C448.54 304.741 448.54 304.741 450.735 303.123C451.455 302.585 452.174 302.046 452.915 301.491C454.86 300.248 454.86 300.248 456.86 300.248C456.86 299.588 456.86 298.928 456.86 298.248C458.193 297.301 459.538 296.369 460.919 295.494C463.093 294.099 465.191 292.618 467.298 291.123C484.756 278.903 502.407 268.131 521.789 259.22C524.498 257.949 527.146 256.572 529.798 255.186C551.151 244.465 574.714 237.002 597.86 231.248C598.671 231.046 599.482 230.845 600.317 230.637C652.514 217.917 708.537 215.465 761.86 221.248ZM601.789 255.696C599.546 256.338 597.291 256.91 595.028 257.479C574.627 262.68 554.688 269.791 535.86 279.248C534.564 279.88 533.267 280.51 531.97 281.139C519.234 287.355 506.935 294.271 494.86 301.686C494.159 302.111 493.458 302.536 492.735 302.974C489.045 304.781 489.045 304.781 487.86 308.248C486.87 308.248 485.88 308.248 484.86 308.248C484.86 308.908 484.86 309.568 484.86 310.248C482.485 311.311 482.485 311.311 479.86 312.248C477.562 313.025 477.562 313.025 477.86 315.248C477.142 315.535 476.424 315.821 475.685 316.116C472.435 317.419 470.34 319.112 467.673 321.373C466.724 322.171 465.775 322.969 464.798 323.791C464.315 324.199 463.831 324.607 463.333 325.027C460.178 327.643 456.908 330.12 453.661 332.619C451.613 334.067 451.613 334.067 451.86 336.248C451.317 336.509 450.773 336.769 450.213 337.037C447.013 338.685 444.728 341.095 442.22 343.623C441.693 344.149 441.166 344.674 440.623 345.215C439.514 346.322 438.408 347.431 437.305 348.543C435.609 350.249 433.904 351.945 432.196 353.639C431.12 354.716 430.045 355.795 428.97 356.873C428.457 357.382 427.945 357.89 427.417 358.414C424.675 360.872 424.675 360.872 423.86 364.248C423.2 364.248 422.54 364.248 421.86 364.248C419.996 366.212 419.996 366.212 417.985 368.811C417.6 369.293 417.216 369.774 416.819 370.27C415.966 371.338 415.115 372.409 414.267 373.48C412.758 375.378 411.232 377.261 409.704 379.143C408.631 380.47 407.558 381.796 406.485 383.123C405.718 384.068 405.718 384.068 404.935 385.032C399.992 390.556 399.992 390.556 397.86 397.248C397.2 397.248 396.54 397.248 395.86 397.248C394.275 399.352 394.275 399.352 392.673 402.061C392.046 403.077 391.42 404.092 390.775 405.139C389.827 406.678 389.827 406.678 388.86 408.248C387.757 409.937 386.653 411.624 385.548 413.311C380.611 421.075 376.253 429.168 371.86 437.248C371.449 438.001 371.038 438.753 370.615 439.528C366.405 447.249 362.34 454.924 359.117 463.121C357.817 466.356 356.429 469.543 355.028 472.737C351.976 479.796 349.347 486.969 346.86 494.248C346.647 494.87 346.434 495.491 346.214 496.131C342.508 506.941 339.296 517.84 336.464 528.912C335.755 531.656 335.003 534.387 334.236 537.116C330.845 549.581 328.586 562.253 326.608 575.008C326.3 576.985 325.984 578.96 325.667 580.936C323.026 597.658 321.549 614.405 320.798 631.311C320.757 632.197 320.716 633.084 320.673 633.997C319.785 653.437 319.458 672.888 319.202 692.344C318.601 737.22 318.601 737.22 316.548 756.936C316.484 757.57 316.42 758.205 316.354 758.858C315.046 771.745 313.151 784.501 310.86 797.248C310.748 797.881 310.635 798.514 310.519 799.166C305.113 829.491 305.113 829.491 301.423 843.119C300.452 846.793 299.559 850.487 298.649 854.178C296.794 861.696 294.929 869.196 292.735 876.623C290.997 882.537 289.657 888.495 288.358 894.516C287.336 899.219 286.197 903.857 284.923 908.498C280.689 924.118 277.243 939.829 275.169 955.885C274.878 958.114 274.558 960.337 274.235 962.561C271.22 984.954 271.271 1009.1 275.86 1031.25C276.005 1031.95 276.15 1032.65 276.298 1033.38C279.399 1047.9 284.068 1062.19 290.564 1075.55C291.86 1078.25 291.86 1078.25 292.907 1081.1C293.605 1083.55 293.605 1083.55 295.86 1083.25C295.996 1083.95 296.131 1084.66 296.271 1085.39C296.983 1088.84 298.39 1091.1 300.298 1094.06C301.224 1095.52 301.224 1095.52 302.169 1097.02C303.595 1099.51 303.595 1099.51 305.86 1099.25C306.108 1099.91 306.355 1100.57 306.61 1101.25C308.158 1104.96 311.378 1112.25 315.86 1112.25C316.547 1113.57 317.208 1114.91 317.86 1116.25C322.447 1122.95 322.447 1122.95 324.921 1118.45C324.998 1113.69 325.086 1108.93 325.178 1104.18C325.216 1102.14 325.25 1100.1 325.282 1098.06C325.559 1080.52 326.103 1062.84 329.735 1045.62C329.99 1044.36 329.99 1044.36 330.251 1043.06C330.602 1041.33 330.958 1039.59 331.319 1037.86C331.875 1035.18 332.408 1032.5 332.939 1029.81C333.287 1028.08 333.636 1026.35 333.985 1024.62C334.223 1023.42 334.223 1023.42 334.465 1022.2C334.619 1021.46 334.773 1020.72 334.931 1019.96C335.062 1019.31 335.194 1018.67 335.33 1018C337.467 1010.95 337.467 1010.95 338.148 1014.93C344.383 1051.12 354.04 1085.04 373.798 1116.31C374.175 1116.91 374.553 1117.52 374.942 1118.14C376.664 1121.36 376.664 1121.36 379.86 1122.25C380.567 1123.56 381.222 1124.9 381.86 1126.25C383.953 1130.59 383.953 1130.59 387.86 1132.25C388.105 1132.77 388.35 1133.3 388.603 1133.84C394.793 1145.69 409.126 1154.84 419.86 1162.25C420.685 1162.82 420.685 1162.82 421.526 1163.41C437.722 1174.55 457.409 1181.36 476.61 1185.12C477.612 1185.32 477.612 1185.32 478.635 1185.53C486.655 1187.04 486.655 1187.04 485.485 1181.75C484.824 1180.77 484.824 1180.77 484.15 1179.78C482.979 1177.99 482.979 1177.99 480.86 1178.25C480.146 1176.94 479.487 1175.6 478.86 1174.25C478.063 1173.05 477.239 1171.87 476.392 1170.7C475.908 1170.03 475.424 1169.36 474.926 1168.67C474.409 1167.95 473.893 1167.24 473.36 1166.5C446.754 1129.15 429.4 1086.72 421.301 1041.63C420.915 1039.54 420.498 1037.47 420.052 1035.39C418.411 1027.73 417.208 1020.07 416.173 1012.31C416.041 1011.34 415.91 1010.37 415.774 1009.37C413.343 990.398 413.343 990.398 418.61 1000.19C418.977 1000.87 419.344 1001.55 419.722 1002.25C422.086 1006.68 424.229 1011.13 426.071 1015.81C426.747 1017.54 426.747 1017.54 428.86 1017.25C429.227 1018.57 429.554 1019.91 429.86 1021.25C431.342 1024.1 433.087 1026.78 434.798 1029.5C435.254 1030.24 435.709 1030.99 436.179 1031.76C436.619 1032.46 437.059 1033.16 437.513 1033.89C437.915 1034.53 438.317 1035.18 438.731 1035.84C439.769 1037.51 439.769 1037.51 441.86 1037.25C442.139 1037.95 442.417 1038.65 442.704 1039.37C444.085 1042.81 446.087 1045.49 448.36 1048.37C448.8 1048.94 449.239 1049.5 449.691 1050.08C453.449 1054.85 457.458 1059.34 461.587 1063.79C464.436 1066.87 467.154 1070.04 469.86 1073.25C471.585 1069.8 468.981 1066.35 467.548 1063C458.345 1040.71 451.432 1017.43 444.86 994.248C444.5 992.981 444.5 992.981 444.131 991.688C440.623 979.241 437.937 966.626 435.29 953.975C434.343 949.462 433.344 944.966 432.298 940.475C417.972 878.899 412.828 814.207 408.235 751.325C408.017 748.34 407.792 745.356 407.548 742.373C406.934 734.855 406.596 727.35 406.36 719.811C406.149 713.041 405.885 706.298 405.341 699.545C404.705 691.009 404.663 682.492 404.673 673.936C404.673 672.67 404.673 672.67 404.674 671.378C404.752 617.85 409.839 560.677 430.786 510.834C431.591 508.896 432.352 506.94 433.091 504.975C438.457 490.759 445.715 477.419 453.681 464.498C455.093 462.229 455.093 462.229 454.86 459.248C455.52 459.248 456.18 459.248 456.86 459.248C456.86 458.258 456.86 457.268 456.86 456.248C458.86 456.248 458.86 456.248 458.297 457.89C454.314 469.548 450.624 481.216 447.444 493.117C446.888 495.146 446.297 497.16 445.689 499.174C438.405 523.593 434.211 549.032 430.86 574.248C430.645 575.79 430.429 577.332 430.212 578.873C429.185 586.37 428.549 593.849 428.202 601.405C428.17 602.066 428.139 602.727 428.107 603.409C428.083 603.982 428.059 604.556 428.034 605.147C427.86 607.248 427.86 607.248 427.351 610.248C426.582 615.505 426.737 620.788 426.763 626.088C426.765 627.771 426.765 627.771 426.767 629.488C426.773 633.054 426.785 636.62 426.798 640.186C426.803 642.611 426.808 645.036 426.812 647.461C425.6 661.747 425.6 661.747 431.364 662.205C431.853 661.551 432.341 660.897 432.845 660.222C433.366 659.509 433.886 658.796 434.423 658.061C434.963 657.328 435.503 656.594 436.06 655.839C437.667 653.648 439.264 651.448 440.86 649.248C441.273 648.689 441.685 648.129 442.11 647.553C458.397 625.431 470.054 600.13 479.93 574.619C481.749 569.984 483.679 565.394 485.604 560.802C485.871 560.158 486.139 559.514 486.415 558.85C486.647 558.296 486.879 557.743 487.118 557.173C488.126 554.561 488.989 551.908 489.86 549.248C489.886 556.646 489.903 564.043 489.915 571.441C489.92 573.951 489.927 576.46 489.936 578.97C490.053 613.492 490.053 613.492 487.86 624.248C487.793 626.685 487.775 629.123 487.798 631.561C487.805 632.529 487.805 632.529 487.812 633.516C487.871 641.517 491.015 637.199 494.36 632.998C494.764 632.507 495.167 632.016 495.583 631.51C497.306 629.377 498.808 627.356 500.017 624.889C500.86 623.248 500.86 623.248 502.86 623.248C504.306 621.513 505.669 619.709 506.985 617.873C508.072 616.377 508.072 616.377 509.181 614.85C511.041 612.484 511.041 612.484 510.86 610.248C511.52 610.248 512.18 610.248 512.86 610.248C514.496 608.051 516.003 605.859 517.485 603.561C517.932 602.876 518.379 602.191 518.839 601.486C519.754 600.077 520.665 598.666 521.572 597.253C522.697 595.503 523.837 593.763 524.982 592.026C529.946 584.284 533.854 576.221 537.7 567.881C539.527 563.923 541.479 560.055 543.485 556.186C550.537 542.147 555.334 527.255 559.86 512.248C560.308 510.789 560.756 509.329 561.204 507.869C563.321 500.895 565.208 493.924 566.798 486.811C568.33 479.977 570.361 473.411 572.643 466.792C574.626 461.034 576.33 455.244 577.903 449.362C578.327 447.983 582.151 435.967 581.682 441.266C580.228 458.082 579.514 474.751 579.545 491.637C579.548 495.313 579.524 498.988 579.499 502.664C579.388 544.327 587.315 583.859 605.86 621.248C606.271 622.076 606.681 622.904 607.104 623.756C608.193 625.93 609.3 628.092 610.423 630.248C610.745 630.872 611.067 631.495 611.399 632.137C612.79 635.405 612.79 635.405 615.86 636.248C615.86 637.238 615.86 638.228 615.86 639.248C616.52 639.248 617.18 639.248 617.86 639.248C618.19 639.908 618.52 640.568 618.86 641.248C618.856 640.47 618.852 639.691 618.847 638.888C618.807 631.476 618.776 624.065 618.757 616.653C618.746 612.844 618.732 609.035 618.71 605.226C618.688 601.537 618.676 597.848 618.671 594.158C618.667 592.765 618.66 591.371 618.649 589.978C618.587 581.778 618.976 573.829 620.148 565.705C620.94 560.193 621.072 554.805 620.86 549.248C625.19 549.248 624.254 550.491 624.636 554.261C625.595 562.751 628.847 571.4 631.36 579.561C631.55 580.181 631.739 580.802 631.934 581.441C633.624 586.827 635.706 592.033 637.86 597.248C638.175 598.013 638.49 598.777 638.815 599.564C652.41 633.359 652.41 633.359 674.86 656.248C675.527 657.582 676.194 658.915 676.86 660.248C679.577 664.559 679.577 664.559 683.86 666.248C684.19 667.238 684.52 668.228 684.86 669.248C685.52 669.248 686.18 669.248 686.86 669.248C686.86 669.908 686.86 670.568 686.86 671.248C689.03 673.329 689.03 673.329 691.735 675.436C692.64 676.172 693.545 676.908 694.478 677.666C698.58 680.39 699.147 678.275 698.251 674.494C698.073 673.722 697.895 672.949 697.712 672.153C697.513 671.339 697.315 670.525 697.11 669.686C696.927 668.899 696.744 668.112 696.556 667.301C695.692 663.61 694.781 659.933 693.841 656.26C689.089 637.319 686.084 617.524 685.071 598.026C684.927 595.316 684.927 595.316 684.379 592.975C683.799 589.922 683.562 586.947 683.36 583.846C683.278 582.626 683.195 581.406 683.11 580.149C683.027 578.869 682.943 577.59 682.86 576.311C682.697 573.802 682.53 571.293 682.36 568.784C682.288 567.674 682.216 566.564 682.142 565.421C681.911 562.297 681.911 562.297 681.362 559.438C680.865 556.274 680.657 553.237 680.548 550.037C680.486 548.223 680.486 548.223 680.423 546.371C680.384 545.057 680.344 543.743 680.306 542.428C680.285 541.751 680.264 541.074 680.242 540.376C679.775 525.084 679.7 509.795 679.731 494.496C679.736 492.329 679.738 490.162 679.741 487.996C679.819 433.058 683.79 378.739 690.86 324.248C690.977 323.34 691.094 322.432 691.215 321.497C692.685 310.243 694.585 299.146 696.888 288.034C697.82 283.515 698.641 278.983 699.423 274.436C700.565 267.802 701.847 261.207 703.212 254.616C707.464 232.537 619.146 250.512 601.789 255.696ZM810.466 548.866C809.638 563.303 808.222 577.147 804.86 591.248C804.559 592.596 804.258 593.943 803.958 595.291C801.097 607.756 797.446 620.558 792.083 632.182C798.71 503.669 815.395 511.663 858.86 623.248C858.86 623.248 852.826 614.15 849.235 609.936C843.403 602.766 838.93 594.7 834.3 586.724C833.005 584.496 831.691 582.279 830.372 580.065C823.755 568.805 818.653 556.951 814.196 544.686C811.071 536.643 810.639 545.487 810.466 548.866ZM562.149 562.615C554.284 583.696 529.189 621.096 529.189 621.096C560.569 529.644 573.654 523.979 585.86 626.248C585.86 626.248 581.862 614.758 579.423 609.123C576.111 601.293 573.88 593.498 571.86 585.248C571.377 583.572 570.893 581.896 570.407 580.221C569.013 575.189 567.845 570.093 566.628 565.016C566.308 563.71 566.308 563.71 565.982 562.377C565.79 561.584 565.599 560.791 565.401 559.973C564.025 555.583 562.887 560.634 562.149 562.615ZM914.735 617.123C915.101 618.794 915.101 618.794 915.474 620.498C915.722 621.568 915.971 622.638 916.228 623.741C916.445 624.703 916.887 626.658 916.887 626.658C895.309 564.996 903.774 570.545 962.224 665.022C962.224 665.022 934.52 632.918 933.86 631.248C932.436 629.047 930.986 626.896 929.485 624.748C924.466 617.431 920.087 609.806 915.796 602.043C915.312 601.175 914.828 600.307 914.329 599.412C913.901 598.633 913.472 597.854 913.03 597.052C907.828 589.033 913.852 613.291 914.735 617.123ZM752.048 634.061C748.325 646.389 743.869 657.783 737.919 669.188C736.743 671.477 735.617 673.788 734.485 676.1C731.865 681.352 728.912 686.362 725.86 691.373C725.353 692.215 724.845 693.057 724.321 693.924C723.322 695.578 722.314 697.227 721.298 698.87C720.342 700.451 719.425 702.055 718.548 703.681C714.745 710.517 714.745 710.517 709.86 708.248C708.877 707.792 707.893 707.336 706.88 706.866C705.822 706.291 704.763 705.716 703.673 705.123C703.109 704.817 702.545 704.511 701.965 704.195C697.334 701.628 693.034 698.696 688.786 695.534C686.969 694.063 686.969 694.063 684.86 694.248C684.86 693.588 684.86 692.928 684.86 692.248C683.475 691.041 683.475 691.041 681.61 689.811C677.694 686.973 674.111 683.884 670.548 680.623C670.033 680.156 669.517 679.689 668.986 679.208C666.827 677.216 664.881 675.276 663.13 672.912C662.007 670.983 662.007 670.983 659.86 671.248C659.153 669.936 658.494 668.598 657.86 667.248C656.972 665.985 656.051 664.745 655.103 663.526C654.563 662.827 654.023 662.128 653.467 661.408C652.895 660.675 652.324 659.942 651.735 659.186C646.662 652.618 641.688 646.001 636.86 639.248C635.693 642.75 635.976 645.566 636.314 649.162C636.374 649.846 636.433 650.529 636.495 651.233C636.693 653.447 636.901 655.66 637.11 657.873C637.179 658.62 637.248 659.366 637.319 660.135C638.318 670.944 639.574 681.625 641.86 692.248C638.909 690.54 636.217 688.833 633.673 686.561C631.21 684.037 631.21 684.037 628.86 684.248C628.86 683.588 628.86 682.928 628.86 682.248C627.31 680.68 627.31 680.68 625.298 679.061C618.488 673.229 612.831 667.153 607.5 659.955C602.119 652.745 585.86 626.248 585.86 626.248C573.654 523.979 560.569 529.644 529.189 621.096C529.189 621.096 502.86 645.492 502.86 654.248C502.2 654.248 501.54 654.248 500.86 654.248C500.86 654.908 500.86 655.568 500.86 656.248C499.532 656.924 498.198 657.589 496.86 658.248C494.979 659.926 494.979 659.926 493.235 661.811C490.055 665.151 490.055 665.151 487.86 666.248C487.86 666.908 487.86 667.568 487.86 668.248C486.545 668.95 485.207 669.61 483.86 670.248C482.44 671.266 481.046 672.32 479.673 673.401C478.892 674.012 478.111 674.624 477.306 675.254C476.499 675.892 475.692 676.529 474.86 677.186C473.256 678.445 471.652 679.704 470.048 680.963C469.34 681.521 468.633 682.079 467.903 682.654C461.838 687.387 461.838 687.387 462.228 684.957C462.777 681.513 463.319 678.068 463.86 674.623C464.147 672.839 464.147 672.839 464.439 671.018C464.619 669.864 464.8 668.71 464.985 667.522C465.153 666.464 465.321 665.406 465.493 664.316C467.752 645.444 453.133 664.95 448.86 672.248C448.86 672.908 448.86 673.568 448.86 674.248C448.2 674.248 447.54 674.248 446.86 674.248C445.527 675.93 444.268 677.67 443.048 679.436C438.64 685.683 438.64 685.683 435.86 688.311C433.621 690.016 433.621 690.016 433.86 692.248C433.2 692.248 432.54 692.248 431.86 692.248C431.86 692.908 431.86 693.568 431.86 694.248C429.923 695.311 429.923 695.311 427.86 696.248C425.85 698.259 427.052 702.451 427.235 705.186C427.336 706.817 427.436 708.449 427.536 710.08C427.59 710.927 427.644 711.773 427.699 712.645C427.962 716.887 428.191 721.13 428.423 725.373C428.507 726.897 428.592 728.42 428.677 729.944C428.737 731.034 428.86 733.248 428.86 733.248C428.86 733.248 430.232 761.536 430.63 766.338C430.711 767.353 430.791 768.369 430.874 769.415C431.135 772.672 431.404 775.929 431.673 779.186C431.763 780.297 431.854 781.409 431.947 782.554C433.021 795.733 434.134 808.907 435.485 822.061C435.596 823.14 435.707 824.22 435.821 825.332C436.483 831.498 437.343 837.613 438.312 843.737C438.917 847.607 439.484 851.481 440.044 855.358C446.517 900.039 456.058 933.596 488.86 966.248C490.15 967.573 490.15 967.573 491.466 968.924C492.318 969.794 493.17 970.664 494.048 971.561C495.338 972.885 495.338 972.885 496.653 974.237C498.609 976.473 498.609 976.473 500.86 976.248C500.86 976.908 500.86 977.568 500.86 978.248C502.512 979.652 504.236 980.969 505.985 982.248C506.801 982.846 506.801 982.846 507.632 983.455C508.791 984.301 509.953 985.145 511.116 985.985C512.753 987.17 514.378 988.369 516.001 989.573C530.81 1000.45 546.28 1010.51 562.931 1018.33C565.697 1019.65 568.422 1021.05 571.152 1022.44C576.798 1025.31 582.422 1028.02 588.349 1030.27C591.329 1031.43 594.244 1032.71 597.173 1034C662.535 1062.17 725.386 1068.18 792.86 1044.25C794.13 1043.81 795.399 1043.37 796.669 1042.93C803.514 1040.54 810.245 1037.96 816.902 1035.09C819.282 1034.07 821.669 1033.07 824.056 1032.06C836.671 1026.71 848.872 1020.89 860.86 1014.25C861.492 1013.9 862.124 1013.55 862.775 1013.19C866.844 1010.95 870.867 1008.63 874.86 1006.25C875.474 1005.88 876.088 1005.52 876.72 1005.14C885.002 1000.17 893.001 994.861 900.86 989.248C901.657 988.684 902.453 988.12 903.273 987.539C904.368 986.745 904.368 986.745 905.485 985.936C906.138 985.465 906.79 984.995 907.462 984.51C909.108 983.339 909.108 983.339 908.86 981.248C910.735 980.186 910.735 980.186 912.86 979.248C915.159 978.472 915.159 978.472 914.86 976.248C915.404 975.979 915.948 975.71 916.509 975.432C919.613 973.87 921.964 971.658 924.485 969.311C925.011 968.824 925.537 968.336 926.078 967.834C934.685 959.752 942.187 950.999 948.86 941.248C949.421 940.457 949.982 939.665 950.56 938.85C954.685 932.753 957.918 926.309 961.11 919.686C961.747 918.374 961.747 918.374 962.397 917.036C967.046 907.187 969.422 897.32 971.298 886.623C971.511 885.418 971.724 884.214 971.944 882.972C974.14 870.314 975.698 857.581 977.196 844.824C977.645 841.012 978.122 837.205 978.634 833.401C979.994 823.244 978.963 778.345 984.86 743.748C985.833 738.04 987.21 733.588 987.591 729.174C987.672 728.288 987.753 727.402 987.836 726.489C987.906 725.523 987.976 724.557 988.048 723.561C988.126 722.581 988.204 721.601 988.285 720.591C988.802 713.545 989.092 706.501 989.173 699.436C989.199 698.076 989.199 698.076 989.226 696.689C989.225 695.44 989.225 695.44 989.224 694.166C989.227 693.432 989.23 692.697 989.233 691.941C989.021 689.825 989.021 689.825 985.86 689.248C985.86 688.588 985.86 687.928 985.86 687.248C984.209 685.578 984.209 685.578 982.11 683.873C979.791 681.911 977.608 679.99 975.485 677.811C973.996 676.017 973.996 676.017 971.86 676.248C971.86 675.588 971.86 674.928 971.86 674.248C970.172 672.58 970.172 672.58 968.048 670.873C965.798 669.013 962.224 665.022 962.224 665.022C903.774 570.545 895.309 564.996 916.887 626.658C918.235 643.5 924.859 657.373 929.423 666.686C929.752 667.608 930.082 668.531 930.421 669.481C931.228 671.739 932.041 673.995 932.86 676.248C931.864 675.735 931.864 675.735 930.848 675.212C926.703 673.083 922.627 671.122 918.235 669.561C909.604 666.226 901.183 660.749 894.005 654.936C892.053 653.042 892.053 653.042 889.86 653.248C889.86 652.588 889.86 651.928 889.86 651.248C888.215 649.692 888.215 649.692 886.11 648.186C885.414 647.659 858.86 623.248 858.86 623.248C815.395 511.663 798.71 503.669 792.083 632.182C792.083 632.182 781.513 652.615 778.548 656.998C752.345 695.317 752.345 695.317 755.853 672.061C757.171 662.458 757.083 652.922 756.985 643.248C756.975 641.491 756.966 639.733 756.958 637.975C756.911 628.842 756.267 619.501 752.048 634.061Z" fill="white"/>
</svg>
