<svg width="1414" height="1414" viewBox="0 0 1414 1414" fill="none" xmlns="http://www.w3.org/2000/svg">
<path d="M780.09 54.959C782.036 55.1631 782.036 55.1631 784.022 55.3713C810.574 58.2444 837.303 62.7482 862.962 70.2539C865.868 71.0862 868.786 71.8615 871.707 72.6357C897.592 79.608 923.17 88.563 947.193 100.525C949.925 101.855 952.685 103.108 955.455 104.357C979.746 115.389 1002.57 129.196 1024.42 144.475C1025.36 145.129 1026.3 145.782 1027.27 146.456C1040.96 155.994 1053.76 166.147 1066.22 177.236C1070.79 181.237 1075.53 185.023 1080.26 188.826C1087.17 194.567 1087.17 194.567 1087.17 197.917C1088.49 198.358 1089.81 198.799 1091.17 199.253C1091.17 200.135 1091.17 201.017 1091.17 201.925C1092.05 201.925 1092.94 201.925 1093.84 201.925C1093.84 202.807 1093.84 203.689 1093.84 204.597C1095.17 205.038 1096.49 205.479 1097.85 205.933C1097.85 206.815 1097.85 207.697 1097.85 208.606C1098.73 208.606 1099.61 208.606 1100.52 208.606C1102.4 210.474 1102.4 210.474 1104.61 213.115C1108.19 217.35 1111.86 221.477 1115.62 225.557C1120.41 230.873 1124.92 236.354 1129.31 242.007C1129.9 242.761 1130.49 243.515 1131.1 244.291C1135.23 249.697 1135.23 249.697 1135.23 252.695C1136.11 252.695 1136.99 252.695 1137.9 252.695C1140.7 255.707 1143 259.136 1145.41 262.465C1146.1 263.388 1146.79 264.31 1147.5 265.26C1148.15 266.151 1148.8 267.043 1149.47 267.961C1150.37 269.189 1150.37 269.189 1151.28 270.442C1152.59 272.736 1152.59 272.736 1152.59 276.744C1153.47 276.744 1154.35 276.744 1155.26 276.744C1157.44 279.906 1159.46 283.061 1161.43 286.347C1162.03 287.317 1162.62 288.287 1163.23 289.287C1164.45 291.277 1165.66 293.27 1166.87 295.265C1168.43 297.818 1170 300.358 1171.58 302.891C1181.1 318.123 1189.13 333.773 1196.66 350.058C1197.9 352.722 1199.17 355.37 1200.46 358.014C1205.16 367.738 1209.1 377.512 1212.59 387.74C1214.25 392.613 1215.98 397.334 1218.18 402C1221.62 409.404 1223.71 417.232 1226.02 425.047C1226.88 427.775 1227.74 430.503 1228.61 433.23C1237.36 461.87 1243.35 491.06 1248.3 520.575C1248.71 522.986 1248.71 522.986 1249.12 525.446C1252.33 545.039 1254.48 564.464 1255.48 584.288C1255.59 586.421 1255.7 588.553 1255.81 590.686C1257.07 614.918 1257.95 639.145 1258.3 663.408C1259.2 723.844 1261.54 784.428 1274.64 843.656C1275.6 848.057 1276.52 852.466 1277.44 856.875C1277.98 859.441 1278.52 862.007 1279.06 864.573C1279.58 867.051 1280.1 869.529 1280.62 872.007C1280.94 873.531 1281.27 875.054 1281.61 876.623C1281.89 877.979 1282.18 879.334 1282.48 880.73C1283.47 884.804 1284.77 888.691 1286.1 892.666C1286.93 895.822 1287.74 898.974 1288.51 902.144C1288.73 903.037 1288.95 903.931 1289.18 904.851C1290.11 908.627 1291.04 912.405 1291.96 916.183C1294.34 925.857 1296.76 935.491 1299.55 945.055C1302.1 953.855 1304.19 962.708 1306.13 971.661C1306.47 973.223 1306.81 974.786 1307.16 976.395C1308.16 980.995 1309.15 985.596 1310.13 990.199C1310.4 991.444 1310.67 992.69 1310.95 993.974C1317.76 1025.69 1320.89 1056.93 1320.98 1089.32C1320.99 1090.98 1320.99 1092.65 1321 1094.37C1320.97 1109.84 1320.21 1125.22 1317.73 1140.5C1317.47 1142.11 1317.47 1142.11 1317.2 1143.75C1315.58 1153.4 1313.08 1162.57 1310.13 1171.9C1309.71 1173.37 1309.28 1174.84 1308.84 1176.35C1304.89 1189.81 1281.73 1257.41 1264.74 1257.41C1264.44 1258.3 1264.14 1259.18 1263.83 1260.1C1261.25 1265.96 1257.04 1269.95 1252.64 1274.53C1251.74 1275.47 1250.84 1276.42 1249.91 1277.4C1231.93 1296.16 1231.93 1296.16 1227.36 1296.16C1227.36 1297.04 1227.36 1297.92 1227.36 1298.83C1224.93 1300.96 1222.51 1302.91 1219.93 1304.84C1218.78 1305.72 1218.78 1305.72 1217.6 1306.61C1208.66 1313.32 1199.38 1319.52 1189.97 1325.55C1188.15 1326.73 1188.15 1326.73 1186.3 1327.93C1174 1334.58 1182.83 1304.61 1184.63 1297.07C1186.54 1288.71 1189.28 1253.66 1186.72 1257.97C1177.91 1272.69 1168.09 1286.17 1156.39 1298.75C1153.73 1301.58 1153.73 1301.58 1151.25 1305.51C1150.37 1305.51 1149.49 1305.51 1148.58 1305.51C1148.14 1306.83 1147.7 1308.15 1147.25 1309.52C1146.37 1309.52 1145.49 1309.52 1144.58 1309.52C1144.14 1310.84 1143.7 1312.16 1143.24 1313.52C1140.96 1315.82 1140.96 1315.82 1138.15 1318.2C1136.78 1319.38 1136.78 1319.38 1135.37 1320.58C1127.66 1326.88 1127.66 1326.88 1124.55 1326.88C1124.55 1327.77 1124.55 1328.65 1124.55 1329.56C1121.53 1331.8 1118.52 1333.87 1115.37 1335.9C1114.45 1336.5 1113.53 1337.11 1112.58 1337.73C1109.91 1339.47 1107.22 1341.2 1104.52 1342.92C1103.32 1343.69 1102.12 1344.46 1100.88 1345.25C1097.68 1347.23 1094.45 1349.1 1091.17 1350.93C1089.86 1351.67 1088.54 1352.41 1087.19 1353.17C1067.08 1363.84 1045.18 1370.12 1022.92 1374.49C1020.74 1374.92 1018.57 1375.38 1016.41 1375.85C994.757 1380.3 971.938 1379.28 949.953 1379.46C946.667 1379.49 943.381 1379.52 940.096 1379.55C933.258 1379.62 926.419 1379.68 919.581 1379.74C911.678 1379.8 903.776 1379.88 895.873 1379.96C888.235 1380.03 880.597 1380.1 872.959 1380.17C869.72 1380.2 866.48 1380.23 863.24 1380.26C858.738 1380.31 854.236 1380.34 849.733 1380.38C847.719 1380.4 847.719 1380.4 845.665 1380.42C844.445 1380.43 843.225 1380.44 841.969 1380.45C840.906 1380.46 839.843 1380.46 838.748 1380.47C827.526 1379.83 837.857 1366.86 841.005 1361.79C849.871 1347.05 856.752 1332.04 862.784 1315.95C863.399 1314.31 863.399 1314.31 864.026 1312.65C864.399 1311.62 864.772 1310.6 865.157 1309.54C865.489 1308.63 865.821 1307.73 866.163 1306.79C868.869 1296.81 865.784 1300.15 861.115 1305.84C860.575 1306.5 860.036 1307.15 859.48 1307.83C857.106 1310.73 854.791 1313.62 852.63 1316.68C850.851 1318.87 850.851 1318.87 848.181 1318.87C848.181 1319.75 848.181 1320.63 848.181 1321.54C846.314 1323.42 846.314 1323.42 843.675 1325.63C840.557 1328.27 837.488 1330.9 834.522 1333.71C801.467 1364.96 755.998 1381.96 710.914 1382C709.432 1382 709.432 1382 707.921 1382C692.946 1381.98 678.498 1381.47 663.934 1377.65C662.349 1377.25 660.764 1376.84 659.131 1376.42C635.552 1369.36 612.926 1357.52 593.173 1342.92C592.056 1342.12 590.939 1341.33 589.788 1340.51C581.964 1334.62 575.081 1327.75 568.139 1320.87C567.176 1319.92 566.212 1318.97 565.22 1317.99C559.252 1311.98 553.99 1305.75 549.114 1298.83C553.759 1326.4 569.334 1352.1 583.861 1375.41C586.129 1379.32 536.99 1379.05 526.143 1379.06C517.006 1379.07 507.87 1379.08 498.733 1379.09C490.76 1379.11 482.787 1379.11 474.815 1379.12C470.602 1379.12 466.389 1379.12 462.176 1379.13C417.095 1379.23 417.095 1379.23 397.661 1375.23C396.48 1375 395.299 1374.76 394.082 1374.52C378.561 1371.38 363.393 1368.03 348.846 1361.62C346.713 1360.76 346.713 1360.76 344.538 1359.88C329.443 1353.73 271.409 1327.34 271.409 1309.52C270.087 1309.08 268.765 1308.63 267.403 1308.18C267.403 1307.3 267.403 1306.42 267.403 1305.51C266.522 1305.51 265.641 1305.51 264.733 1305.51C262.866 1303.5 261.104 1301.39 259.393 1299.25C258.868 1298.59 258.343 1297.93 257.803 1297.26C256.098 1295.12 254.407 1292.96 252.717 1290.81C252.15 1290.1 251.584 1289.38 251 1288.65C243.365 1279.02 236.447 1269.23 230.02 1258.75C224.216 1250.03 228.249 1276.23 228.935 1281.71C229.103 1283.09 229.271 1284.46 229.444 1285.88C230.927 1297.21 233.28 1308.24 236.212 1319.28C236.506 1320.44 236.8 1321.59 237.102 1322.79C237.378 1323.81 237.653 1324.83 237.936 1325.88C238.214 1332.76 231.016 1328.08 228.179 1326.23C227.06 1325.51 225.94 1324.78 224.787 1324.04C223.622 1323.27 222.458 1322.5 221.258 1321.71C218.948 1320.21 216.638 1318.71 214.327 1317.21C213.304 1316.54 212.281 1315.86 211.226 1315.17C208.694 1313.48 208.694 1313.48 205.988 1312.19C205.988 1311.31 205.988 1310.42 205.988 1309.52C205.107 1309.19 204.226 1308.85 203.318 1308.51C198.358 1306.45 188.631 1302.14 188.631 1296.16C187.907 1295.8 187.182 1295.44 186.436 1295.07C182.258 1292.96 179.091 1289.97 175.697 1286.8C174.632 1285.81 174.632 1285.81 173.546 1284.8C137.961 1251.28 112.371 1204.95 102.413 1157.13C101.82 1154.4 101.15 1151.7 100.461 1149C95.5655 1129.65 94.9273 1109.85 95.006 1089.99C95.0098 1088.72 95.0098 1088.72 95.0136 1087.43C95.142 1050.5 100.299 1015.52 108.524 979.51C108.92 977.756 108.92 977.756 109.324 975.967C111.859 964.758 114.682 953.657 117.693 942.565C119.681 935.071 121.426 927.517 123.21 919.972C125.312 911.087 127.443 902.252 130.053 893.502C132.805 884.212 134.717 874.794 136.65 865.309C137.65 860.406 138.743 855.533 139.899 850.664C141.633 843.26 143.166 835.825 144.656 828.369C144.873 827.285 145.089 826.201 145.313 825.084C145.967 821.783 146.608 818.48 147.243 815.175C147.582 813.425 147.582 813.425 147.928 811.64C149.625 802.637 150.871 793.63 151.916 784.529C152.15 782.614 152.15 782.614 152.39 780.66C155.828 751.009 156.931 721.408 157.131 691.596C157.352 659.853 158.14 628.178 159.843 596.479C159.966 594.117 159.966 594.117 160.092 591.707C160.989 574.795 162.144 558.045 164.599 541.284C164.87 539.361 165.141 537.439 165.412 535.516C170.991 496.388 179.192 458.715 191.302 421.039C191.95 418.968 192.599 416.898 193.247 414.828C207.309 370.566 228.27 327.157 253.866 288.431C255.515 285.901 257.118 283.347 258.715 280.784C259.534 279.477 259.534 279.477 260.37 278.144C261.423 276.464 262.469 274.779 263.508 273.09C267.104 267.392 267.104 267.392 270.074 267.392C270.389 266.515 270.704 265.639 271.028 264.736C273.508 258.92 277.462 254.586 281.506 249.773C283.095 247.863 284.682 245.951 286.267 244.037C286.97 243.198 287.674 242.359 288.398 241.495C290.204 239.354 290.204 239.354 291.436 236.663C292.317 236.663 293.198 236.663 294.106 236.663C295.037 234.903 295.92 233.117 296.776 231.318C299.676 227.574 302.935 224.131 306.122 220.63C306.705 219.986 307.288 219.343 307.889 218.679C320.45 204.829 333.239 191.324 347.511 179.212C348.382 178.437 349.252 177.662 350.15 176.864C350.986 176.123 351.823 175.383 352.684 174.62C353.794 173.63 353.794 173.63 354.927 172.621C356.857 171.196 356.857 171.196 359.527 171.196C359.527 170.314 359.527 169.432 359.527 168.524C361.769 166.509 361.769 166.509 364.7 164.349C365.661 163.629 366.621 162.909 367.611 162.167C370.208 160.508 370.208 160.508 372.878 160.508C372.878 159.626 372.878 158.744 372.878 157.835C374.657 156.57 376.453 155.325 378.297 154.156C381.199 152.292 384.001 150.313 386.813 148.316C410.122 131.989 433.688 117.596 459.566 105.691C463.183 103.994 466.718 102.153 470.258 100.301C498.768 85.9775 530.227 76.0069 561.13 68.3196C562.212 68.0499 563.295 67.7801 564.41 67.5022C634.099 50.5081 708.896 47.2326 780.09 54.959ZM566.375 100.983C563.381 101.841 560.369 102.605 557.349 103.365C530.111 110.315 503.489 119.815 478.353 132.45C476.622 133.294 474.89 134.136 473.158 134.976C456.155 143.281 439.734 152.522 423.613 162.428C422.676 162.996 421.74 163.564 420.775 164.15C415.848 166.564 415.848 166.564 414.267 171.196C412.945 171.196 411.623 171.196 410.261 171.196C410.261 172.078 410.261 172.96 410.261 173.868C407.091 175.288 407.091 175.288 403.586 176.54C400.518 177.577 400.518 177.577 400.916 180.548C399.957 180.931 398.998 181.313 398.011 181.707C393.672 183.448 390.875 185.711 387.314 188.732C386.047 189.798 384.781 190.864 383.476 191.962C382.83 192.507 382.185 193.052 381.52 193.613C377.308 197.109 372.942 200.417 368.607 203.757C365.872 205.691 365.872 205.691 366.202 208.606C365.477 208.953 364.751 209.301 364.003 209.66C359.73 211.861 356.68 215.081 353.331 218.459C352.627 219.161 351.924 219.862 351.199 220.585C349.719 222.064 348.242 223.547 346.769 225.032C344.505 227.312 342.228 229.577 339.949 231.84C338.512 233.28 337.076 234.72 335.641 236.162C334.957 236.841 334.272 237.52 333.568 238.22C329.906 241.503 329.906 241.503 328.819 246.015C327.938 246.015 327.057 246.015 326.149 246.015C323.659 248.638 323.659 248.638 320.975 252.111C320.461 252.754 319.947 253.398 319.418 254.061C318.279 255.488 317.143 256.918 316.01 258.349C313.995 260.884 311.959 263.401 309.919 265.915C308.486 267.687 307.053 269.46 305.621 271.233C304.597 272.495 304.597 272.495 303.551 273.783C296.951 281.163 296.951 281.163 294.106 290.105C293.225 290.105 292.344 290.105 291.436 290.105C289.319 292.915 289.319 292.915 287.18 296.535C286.344 297.892 285.507 299.249 284.645 300.647C283.38 302.704 283.38 302.704 282.09 304.802C280.617 307.057 279.143 309.312 277.667 311.565C271.076 321.939 265.257 332.752 259.393 343.547C258.844 344.552 258.295 345.557 257.73 346.593C252.109 356.909 246.682 367.163 242.379 378.114C240.643 382.437 238.79 386.695 236.92 390.962C232.844 400.394 229.335 409.977 226.015 419.702C225.73 420.532 225.445 421.362 225.151 422.217C220.204 436.66 215.915 451.223 212.135 466.015C211.188 469.681 210.184 473.33 209.16 476.976C204.632 493.63 201.617 510.56 198.975 527.602C198.564 530.243 198.142 532.883 197.719 535.522C194.193 557.863 192.22 580.238 191.218 602.826C191.163 604.01 191.108 605.194 191.052 606.415C189.865 632.387 189.429 658.375 189.087 684.37C188.285 744.326 188.285 744.326 185.544 770.668C185.458 771.515 185.373 772.363 185.285 773.236C183.539 790.454 181.009 807.496 177.95 824.528C177.8 825.373 177.649 826.218 177.494 827.089C170.276 867.605 170.276 867.605 165.35 885.813C164.054 890.722 162.861 895.658 161.647 900.588C159.17 910.633 156.68 920.654 153.751 930.577C151.43 938.478 149.641 946.438 147.907 954.483C146.542 960.766 145.022 966.963 143.321 973.164C137.668 994.033 133.067 1015.02 130.298 1036.48C129.909 1039.45 129.482 1042.42 129.052 1045.39C125.026 1075.31 125.094 1107.57 131.221 1137.16C131.414 1138.1 131.607 1139.04 131.806 1140.01C135.946 1159.42 142.18 1178.51 150.852 1196.35C152.583 1199.96 152.583 1199.96 153.981 1203.77C154.912 1207.05 154.912 1207.05 157.924 1206.64C158.104 1207.58 158.285 1208.52 158.471 1209.49C159.423 1214.12 161.301 1217.13 163.848 1221.09C165.085 1223.04 165.085 1223.04 166.346 1225.04C168.251 1228.37 168.251 1228.37 171.275 1228.02C171.605 1228.9 171.936 1229.78 172.276 1230.69C174.343 1235.65 178.642 1245.39 184.626 1245.39C185.542 1247.15 186.426 1248.94 187.296 1250.73C193.419 1259.68 193.419 1259.68 196.722 1253.67C196.826 1247.31 196.944 1240.96 197.066 1234.6C197.116 1231.88 197.163 1229.15 197.205 1226.43C197.575 1203 198.301 1179.37 203.151 1156.37C203.491 1154.68 203.491 1154.68 203.839 1152.95C204.308 1150.63 204.783 1148.31 205.266 1146C206.007 1142.42 206.719 1138.83 207.427 1135.24C207.892 1132.93 208.358 1130.62 208.825 1128.31C209.142 1126.71 209.142 1126.71 209.466 1125.07C209.671 1124.09 209.876 1123.1 210.087 1122.08C210.263 1121.22 210.439 1120.35 210.62 1119.46C213.474 1110.04 213.474 1110.04 214.383 1115.37C222.707 1163.72 235.6 1209.03 261.98 1250.81C262.484 1251.62 262.988 1252.42 263.507 1253.25C265.806 1257.56 265.806 1257.56 270.074 1258.75C271.017 1260.5 271.892 1262.29 272.744 1264.09C275.537 1269.88 275.537 1269.88 280.755 1272.11C281.082 1272.81 281.409 1273.51 281.746 1274.24C290.011 1290.06 309.146 1302.29 323.479 1312.19C324.58 1312.96 324.58 1312.96 325.703 1313.74C347.326 1328.63 373.61 1337.72 399.247 1342.75C400.584 1343.02 400.584 1343.02 401.949 1343.29C412.658 1345.31 412.658 1345.31 411.096 1338.24C410.213 1336.94 410.213 1336.94 409.312 1335.61C407.75 1333.22 407.75 1333.22 404.921 1333.57C403.967 1331.82 403.087 1330.03 402.251 1328.22C401.186 1326.62 400.086 1325.04 398.955 1323.48C398.309 1322.58 397.663 1321.69 396.998 1320.76C396.308 1319.81 395.618 1318.85 394.908 1317.87C359.385 1267.97 336.215 1211.27 325.402 1151.03C324.886 1148.25 324.329 1145.47 323.734 1142.7C321.543 1132.47 319.937 1122.24 318.555 1111.86C318.38 1110.56 318.204 1109.27 318.023 1107.93C314.777 1082.59 314.777 1082.59 321.81 1095.66C322.3 1096.57 322.789 1097.48 323.294 1098.42C326.45 1104.34 329.31 1110.29 331.771 1116.53C332.672 1118.85 332.672 1118.85 335.495 1118.46C335.984 1120.23 336.42 1122.01 336.83 1123.8C338.807 1127.61 341.138 1131.2 343.422 1134.83C344.03 1135.82 344.639 1136.82 345.266 1137.84C345.853 1138.78 346.441 1139.72 347.047 1140.69C347.583 1141.55 348.12 1142.42 348.673 1143.3C350.059 1145.53 350.059 1145.53 352.851 1145.18C353.223 1146.11 353.595 1147.05 353.978 1148.01C355.822 1152.61 358.494 1156.19 361.53 1160.04C362.116 1160.8 362.702 1161.55 363.307 1162.33C368.323 1168.7 373.676 1174.7 379.189 1180.64C382.993 1184.76 386.621 1189 390.235 1193.28C392.538 1188.67 389.06 1184.06 387.147 1179.58C374.86 1149.8 365.63 1118.7 356.857 1087.73C356.375 1086.04 356.375 1086.04 355.883 1084.31C351.2 1067.68 347.614 1050.83 344.079 1033.92C342.815 1027.89 341.481 1021.89 340.084 1015.89C320.958 933.617 314.089 847.186 307.958 763.171C307.666 759.183 307.366 755.196 307.04 751.211C306.22 741.166 305.768 731.14 305.454 721.067C305.171 712.021 304.819 703.013 304.093 693.991C303.245 682.585 303.187 671.206 303.201 659.775C303.202 658.083 303.202 658.083 303.203 656.357C303.307 584.841 310.099 508.455 338.066 441.862C339.141 439.273 340.157 436.659 341.143 434.034C348.308 415.04 357.998 397.218 368.633 379.955C370.518 376.923 370.518 376.923 370.208 372.94C371.089 372.94 371.97 372.94 372.878 372.94C372.878 371.618 372.878 370.295 372.878 368.932C375.548 368.932 375.548 368.932 374.796 371.126C369.479 386.701 364.551 402.29 360.307 418.191C359.564 420.902 358.774 423.593 357.962 426.284C348.238 458.909 342.639 492.896 338.165 526.587C337.877 528.647 337.589 530.707 337.299 532.766C335.928 542.782 335.079 552.775 334.615 562.87C334.573 563.753 334.531 564.637 334.488 565.547C334.456 566.313 334.424 567.08 334.391 567.869C334.16 570.677 334.16 570.677 333.48 574.685C332.452 581.708 332.66 588.766 332.694 595.848C332.697 598.097 332.697 598.097 332.7 600.391C332.707 605.155 332.724 609.919 332.741 614.683C332.748 617.923 332.754 621.163 332.759 624.404C331.141 643.489 331.141 643.489 338.838 644.103C339.49 643.228 340.142 642.354 340.814 641.453C341.51 640.5 342.205 639.547 342.921 638.565C343.642 637.586 344.363 636.606 345.106 635.597C347.253 632.669 349.385 629.731 351.516 626.791C352.067 626.044 352.617 625.296 353.184 624.526C374.929 594.97 390.493 561.167 403.678 527.083C406.107 520.89 408.684 514.757 411.254 508.621C411.611 507.761 411.969 506.9 412.337 506.014C412.647 505.274 412.956 504.535 413.275 503.773C414.621 500.284 415.773 496.738 416.937 493.186C416.971 503.069 416.994 512.952 417.01 522.836C417.016 526.189 417.026 529.542 417.038 532.895C417.194 579.019 417.194 579.019 414.267 593.39C414.177 596.645 414.153 599.903 414.183 603.16C414.192 604.453 414.192 604.453 414.202 605.772C414.281 616.462 418.478 610.693 422.945 605.08C423.484 604.424 424.022 603.768 424.577 603.092C426.878 600.242 428.883 597.542 430.497 594.246C431.623 592.054 431.623 592.054 434.294 592.054C436.223 589.735 438.044 587.324 439.801 584.872C441.252 582.873 441.252 582.873 442.732 580.833C445.216 577.673 445.216 577.673 444.975 574.685C445.856 574.685 446.737 574.685 447.645 574.685C449.828 571.749 451.841 568.821 453.82 565.75C454.416 564.835 455.012 563.92 455.627 562.978C456.848 561.096 458.064 559.211 459.276 557.322C460.778 554.984 462.3 552.66 463.828 550.339C470.456 539.995 475.674 529.223 480.809 518.08C483.248 512.792 485.854 507.624 488.533 502.454C497.948 483.698 504.352 463.801 510.395 443.751C510.993 441.801 511.591 439.851 512.19 437.901C515.015 428.583 517.535 419.27 519.658 409.766C521.703 400.635 524.414 391.862 527.461 383.02C530.109 375.326 532.385 367.591 534.485 359.731C535.051 357.889 540.156 341.835 539.53 348.915C537.589 371.383 536.636 393.653 536.676 416.214C536.681 421.125 536.649 426.036 536.615 430.947C536.467 486.61 547.05 539.427 571.811 589.382C572.359 590.487 572.906 591.593 573.471 592.732C574.925 595.636 576.403 598.525 577.903 601.406C578.333 602.239 578.763 603.072 579.206 603.93C581.063 608.296 581.063 608.296 585.162 609.422C585.162 610.745 585.162 612.068 585.162 613.431C586.043 613.431 586.925 613.431 587.832 613.431C588.273 614.312 588.714 615.194 589.168 616.103C589.162 615.062 589.156 614.022 589.15 612.95C589.096 603.047 589.055 593.144 589.029 583.241C589.015 578.153 588.997 573.064 588.966 567.975C588.937 563.046 588.921 558.117 588.914 553.188C588.909 551.326 588.9 549.464 588.885 547.602C588.803 536.648 589.322 526.027 590.887 515.173C591.944 507.808 592.121 500.609 591.838 493.186C597.618 493.186 596.368 494.845 596.878 499.882C598.159 511.226 602.501 522.782 605.857 533.685C606.109 534.514 606.362 535.343 606.622 536.197C608.879 543.393 611.659 550.349 614.535 557.316C614.955 558.337 615.376 559.358 615.809 560.41C633.96 605.562 633.96 605.562 663.934 636.144C664.824 637.925 665.715 639.706 666.605 641.488C670.232 647.246 670.232 647.246 675.95 649.504C676.391 650.827 676.832 652.15 677.286 653.512C678.167 653.512 679.048 653.512 679.956 653.512C679.956 654.394 679.956 655.276 679.956 656.184C682.853 658.964 682.853 658.964 686.465 661.779C687.673 662.763 688.881 663.746 690.126 664.759C695.603 668.398 696.359 665.572 695.164 660.521C694.926 659.489 694.689 658.456 694.444 657.393C694.179 656.305 693.914 655.217 693.641 654.097C693.396 653.045 693.152 651.994 692.9 650.911C691.746 645.979 690.531 641.066 689.276 636.159C682.931 610.853 678.919 584.405 677.567 558.355C677.375 554.735 677.375 554.735 676.642 551.607C675.868 547.528 675.552 543.552 675.283 539.41C675.173 537.78 675.063 536.15 674.949 534.47C674.837 532.761 674.726 531.052 674.615 529.343C674.397 525.99 674.174 522.638 673.948 519.286C673.851 517.803 673.755 516.32 673.656 514.792C673.348 510.62 673.348 510.62 672.615 506.8C671.951 502.573 671.673 498.514 671.529 494.239C671.446 491.815 671.446 491.815 671.361 489.342C671.308 487.586 671.256 485.829 671.205 484.073C671.177 483.169 671.149 482.264 671.12 481.332C670.496 460.9 670.396 440.473 670.438 420.033C670.443 417.138 670.447 414.243 670.451 411.348C670.554 337.948 675.856 265.376 685.296 192.573C685.453 191.36 685.609 190.147 685.77 188.897C687.732 173.861 690.27 159.035 693.344 144.188C694.588 138.151 695.684 132.095 696.728 126.021C698.253 117.157 699.964 108.346 701.787 99.5395C707.464 70.0414 589.549 94.0566 566.375 100.983ZM844.984 492.674C843.878 511.964 841.988 530.459 837.5 549.3C837.097 551.1 836.696 552.901 836.295 554.702C832.475 571.354 827.601 588.459 820.441 603.99C829.288 432.289 851.565 442.97 909.597 592.054C909.597 592.054 901.54 579.897 896.746 574.267C888.96 564.688 882.987 553.912 876.806 543.256C875.076 540.279 873.322 537.317 871.561 534.358C862.727 519.315 855.915 503.477 849.965 487.09C845.791 476.344 845.215 488.16 844.984 492.674ZM513.451 511.044C502.951 539.21 469.445 589.178 469.445 589.178C511.342 466.992 528.812 459.424 545.109 596.062C545.109 596.062 539.77 580.711 536.514 573.182C532.091 562.72 529.113 552.306 526.417 541.284C525.771 539.044 525.126 536.805 524.477 534.567C522.615 527.844 521.056 521.035 519.431 514.252C519.004 512.507 519.004 512.507 518.568 510.727C518.312 509.667 518.057 508.607 517.793 507.515C515.955 501.649 514.436 508.398 513.451 511.044ZM984.196 583.87C984.684 586.102 984.684 586.102 985.182 588.38C985.514 589.809 985.847 591.239 986.189 592.711C986.479 593.998 987.069 596.609 987.069 596.609C958.26 514.226 969.562 521.64 1047.6 647.865C1047.6 647.865 1010.61 604.973 1009.73 602.742C1007.83 599.801 1005.89 596.927 1003.89 594.058C997.188 584.282 991.341 574.095 985.613 563.723C984.967 562.563 984.32 561.403 983.654 560.208C983.082 559.167 982.51 558.126 981.92 557.053C974.974 546.34 983.017 578.749 984.196 583.87ZM766.989 606.5C762.018 622.971 756.069 638.194 748.125 653.432C746.555 656.49 745.051 659.578 743.541 662.666C740.043 669.684 736.1 676.378 732.026 683.073C731.347 684.197 730.669 685.322 729.971 686.481C728.636 688.69 727.291 690.893 725.934 693.089C724.658 695.201 723.433 697.344 722.262 699.516C717.186 708.649 717.186 708.649 710.664 705.619C709.35 705.009 708.037 704.399 706.684 703.771C705.271 703.003 703.858 702.235 702.403 701.443C701.65 701.034 700.897 700.625 700.122 700.204C693.94 696.774 688.198 692.857 682.527 688.631C680.101 686.667 680.101 686.667 677.286 686.914C677.286 686.032 677.286 685.15 677.286 684.242C675.435 682.628 675.435 682.628 672.946 680.985C667.717 677.194 662.934 673.067 658.177 668.71C657.489 668.086 656.801 667.462 656.092 666.818C653.209 664.158 650.611 661.566 648.273 658.408C646.774 655.83 646.774 655.83 643.908 656.184C642.963 654.431 642.083 652.643 641.237 650.84C640.052 649.152 638.821 647.495 637.555 645.867C636.835 644.933 636.114 643.999 635.371 643.038C634.608 642.058 633.846 641.078 633.06 640.068C626.286 631.293 619.645 622.452 613.2 613.431C611.641 618.109 612.019 621.871 612.47 626.676C612.55 627.589 612.63 628.502 612.712 629.443C612.976 632.401 613.254 635.358 613.534 638.315C613.625 639.312 613.717 640.309 613.811 641.337C615.146 655.778 616.822 670.048 619.875 684.242C615.935 681.959 612.341 679.678 608.944 676.643C605.656 673.27 605.656 673.27 602.519 673.553C602.519 672.671 602.519 671.79 602.519 670.881C600.448 668.785 600.448 668.785 597.762 666.622C588.67 658.83 581.118 650.713 574 641.096C566.816 631.463 545.109 596.062 545.109 596.062C528.812 459.424 511.342 466.992 469.445 589.178C469.445 589.178 434.294 621.773 434.294 633.471C433.412 633.471 432.531 633.471 431.623 633.471C431.623 634.353 431.623 635.235 431.623 636.144C429.849 637.047 428.068 637.935 426.283 638.816C423.771 641.057 423.771 641.057 421.443 643.575C417.197 648.038 417.197 648.038 414.267 649.504C414.267 650.386 414.267 651.268 414.267 652.176C412.511 653.114 410.725 653.995 408.926 654.848C407.03 656.208 405.169 657.616 403.335 659.06C402.293 659.877 401.25 660.695 400.175 661.537C399.098 662.388 398.02 663.24 396.91 664.117C394.769 665.8 392.627 667.482 390.485 669.164C389.54 669.91 388.595 670.655 387.622 671.424C379.524 677.746 379.524 677.746 380.044 674.5C380.777 669.899 381.5 665.296 382.224 660.694C382.606 658.309 382.606 658.309 382.996 655.877C383.237 654.335 383.478 652.794 383.726 651.206C383.95 649.792 384.173 648.379 384.404 646.923C387.42 621.708 367.901 647.77 362.197 657.521C362.197 658.402 362.197 659.284 362.197 660.193C361.316 660.193 360.435 660.193 359.527 660.193C357.746 662.439 356.065 664.765 354.437 667.123C348.551 675.47 348.551 675.47 344.84 678.981C341.851 681.259 341.851 681.259 342.17 684.242C341.289 684.242 340.408 684.242 339.5 684.242C339.5 685.123 339.5 686.005 339.5 686.914C336.913 688.333 336.913 688.333 334.16 689.586C331.476 692.272 333.081 697.873 333.325 701.527C333.459 703.707 333.593 705.886 333.727 708.066C333.798 709.197 333.87 710.328 333.944 711.493C334.295 717.16 334.601 722.829 334.911 728.499C335.023 730.534 335.136 732.569 335.25 734.605C335.33 736.062 335.495 739.02 335.495 739.02C335.495 739.02 337.325 776.814 337.857 783.23C337.965 784.586 338.073 785.943 338.184 787.34C338.532 791.692 338.89 796.044 339.25 800.395C339.371 801.88 339.491 803.365 339.616 804.895C341.05 822.503 342.535 840.104 344.34 857.679C344.488 859.121 344.635 860.563 344.787 862.049C345.672 870.286 346.821 878.457 348.113 886.64C348.921 891.81 349.679 896.986 350.426 902.165C359.068 961.862 371.807 1006.7 415.602 1050.32C417.324 1052.09 417.324 1052.09 419.081 1053.9C420.218 1055.06 421.356 1056.22 422.528 1057.42C424.25 1059.19 424.25 1059.19 426.006 1060.99C428.618 1063.98 428.618 1063.98 431.623 1063.68C431.623 1064.56 431.623 1065.45 431.623 1066.35C433.828 1068.23 436.13 1069.99 438.466 1071.7C439.554 1072.5 439.554 1072.5 440.665 1073.31C442.212 1074.44 443.763 1075.57 445.316 1076.69C447.501 1078.27 449.671 1079.88 451.838 1081.48C471.61 1096.02 492.264 1109.46 514.495 1119.9C518.188 1121.67 521.826 1123.53 525.472 1125.39C533.01 1129.23 540.518 1132.85 548.431 1135.86C552.41 1137.41 556.302 1139.12 560.212 1140.84C647.479 1178.47 731.393 1186.51 821.479 1154.53C823.173 1153.95 824.868 1153.36 826.564 1152.77C835.703 1149.58 844.689 1146.13 853.578 1142.3C856.755 1140.93 859.942 1139.59 863.128 1138.25C879.971 1131.1 896.261 1123.32 912.267 1114.45C913.111 1113.99 913.954 1113.52 914.824 1113.04C920.256 1110.04 925.626 1106.94 930.959 1103.76C931.778 1103.28 932.597 1102.79 933.442 1102.28C944.499 1095.65 955.179 1088.55 965.672 1081.05C966.735 1080.3 967.798 1079.54 968.893 1078.77C970.355 1077.71 970.355 1077.71 971.847 1076.62C972.717 1076 973.588 1075.37 974.486 1074.72C976.683 1073.16 976.683 1073.16 976.353 1070.36C978.856 1068.94 978.856 1068.94 981.693 1067.69C984.761 1066.65 984.761 1066.65 984.363 1063.68C985.09 1063.32 985.816 1062.96 986.564 1062.59C990.708 1060.5 993.848 1057.55 997.214 1054.41C997.916 1053.76 998.617 1053.11 999.34 1052.44C1010.83 1041.64 1020.85 1029.95 1029.76 1016.92C1030.51 1015.86 1031.25 1014.8 1032.03 1013.72C1037.53 1005.57 1041.85 996.96 1046.11 988.111C1046.96 986.359 1046.96 986.359 1047.83 984.571C1054.04 971.411 1057.21 958.229 1059.71 943.938C1060 942.328 1060.28 940.718 1060.58 939.059C1063.51 922.147 1065.59 905.135 1067.59 888.091C1068.19 882.998 1068.82 877.912 1069.51 872.829C1071.32 859.259 1069.95 799.272 1077.82 753.048C1079.12 745.422 1080.96 739.473 1081.47 733.577C1081.58 732.393 1081.68 731.209 1081.79 729.99C1081.89 728.698 1081.98 727.407 1082.08 726.077C1082.18 724.768 1082.29 723.458 1082.39 722.11C1083.08 712.695 1083.47 703.284 1083.58 693.845C1083.61 692.028 1083.61 692.028 1083.65 690.175C1083.65 688.506 1083.65 688.506 1083.65 686.804C1083.65 685.823 1083.66 684.841 1083.66 683.83C1083.38 681.004 1083.38 681.004 1079.16 680.233C1079.16 679.352 1079.16 678.47 1079.16 677.561C1076.95 675.329 1076.95 675.329 1074.15 673.052C1071.05 670.43 1068.14 667.863 1065.31 664.952C1063.32 662.556 1063.32 662.556 1060.47 662.865C1060.47 661.983 1060.47 661.101 1060.47 660.193C1058.21 657.963 1058.21 657.963 1055.38 655.683C1052.37 653.197 1047.6 647.865 1047.6 647.865C969.562 521.64 958.26 514.226 987.069 596.609C988.869 619.111 997.713 637.646 1003.81 650.089C1004.25 651.321 1004.69 652.553 1005.14 653.823C1006.22 656.84 1007.3 659.853 1008.4 662.865C1007.07 662.179 1007.07 662.179 1005.71 661.479C1000.18 658.636 994.732 656.015 988.869 653.93C977.346 649.475 966.103 642.157 956.519 634.39C953.913 631.86 953.913 631.86 950.985 632.135C950.985 631.254 950.985 630.372 950.985 629.463C948.789 627.385 948.789 627.385 945.979 625.372C945.049 624.667 909.597 592.054 909.597 592.054C851.565 442.97 829.288 432.289 820.441 603.99C820.441 603.99 806.328 631.289 802.37 637.146C767.386 688.342 767.386 688.342 772.069 657.27C773.828 644.441 773.712 631.699 773.581 618.775C773.568 616.426 773.556 614.078 773.545 611.729C773.482 599.527 772.622 587.047 766.989 606.5Z" fill="white"/>
</svg>
